DataType=double
version=3
OpenSimVersion=4.5
endheader
time	pelvis_tilt	pelvis_list	pelvis_rotation	pelvis_tx	pelvis_ty	pelvis_tz	hip_flexion_r	hip_adduction_r	hip_rotation_r	knee_angle_r	knee_frontal_r	knee_adduction_r	knee_angle_r_beta	ankle_angle_r	subtalar_angle_r	mtp_angle_r	hip_flexion_l	hip_adduction_l	hip_rotation_l	knee_angle_l	knee_frontal_l	knee_adduction_l	knee_angle_l_beta	ankle_angle_l	subtalar_angle_l	mtp_angle_l	lumbar_extension	lumbar_bending	lumbar_rotation	arm_flex_r	arm_add_r	arm_rot_r	elbow_flex_r	pro_sup_r	wrist_flex_r	wrist_dev_r	arm_flex_l	arm_add_l	arm_rot_l	elbow_flex_l	pro_sup_l	wrist_flex_l	wrist_dev_l
1.765	-0.1154426839965852	-0.03277509667081034	-0.05472526865780077	0.8048536996762291	0.9490304956360827	0.4917853286886308	-0.1439060994070558	0.01564983817503795	0.05171563059477021	0.3523486292479021	0	0	0.3523486292479021	0.1143513979350225	0.09310324627153184	-0.4054354969161756	0.5203011340094164	-0.05743085227718821	0.01126650871124736	0.2411987601004601	0	0	0.2411987601004601	0.04895268823612983	0.001888645379469825	-0.3075173849312412	-0.08119455074501847	0.04244674396892015	-0.001563127406353197	0.1059841213004155	-0.3471196894940676	-0.02649819697958677	1.094079268658889	1.57079633	0	0	-0.3392234469684405	-0.2360284283551706	0.08166904591008732	0.6208119318286563	1.57079633	0	0
1.77	-0.1145592891130943	-0.02905302432790981	-0.0545218850150691	0.8059049618951554	0.9488434128560643	0.4910362958575551	-0.1411177523978772	0.009477233677919507	0.04503592633845133	0.3719138929323659	0	0	0.3719138929323659	0.1009592371385132	0.09139423831308797	-0.4148281313812124	0.5176457817614771	-0.05176135867614405	0.01306339670571406	0.2520231882261684	0	0	0.2520231882261684	0.04035094411698763	-0.006670754296889035	-0.3079809613272642	-0.0809257508872914	0.03850664672269766	-0.001809039689856241	0.1016386449019056	-0.3452141476730543	-0.02845201372200099	1.090602614463706	1.57079633	0	0	-0.3370475309540047	-0.2373529606004777	0.08421439366996689	0.6175842606746613	1.57079633	0	0
1.775	-0.1137542993749404	-0.0253204017837684	-0.05434701475393744	0.8069520812899295	0.9486875760792505	0.4902766477839361	-0.1372790714864122	0.003268141769178841	0.03864799478924622	0.3929267879300806	0	0	0.3929267879300806	0.08634036831442457	0.08869114208415445	-0.423264670696444	0.5149973758933943	-0.04608156800521579	0.01486483170279887	0.2628724024386476	0	0	0.2628724024386476	0.03216695346626243	-0.01536380613308756	-0.3078023802935869	-0.08059353425198809	0.0345891559816594	-0.002047451689058548	0.09725093240893572	-0.3432787068650314	-0.03034047455075775	1.086601835919661	1.57079633	0	0	-0.334672670410872	-0.2388096756060924	0.08699078253486944	0.6145683619094759	1.57079633	0	0
1.78	-0.1130325744704811	-0.02159069775221013	-0.05422195520112155	0.8079884266674661	0.9485626895814072	0.4895090872507116	-0.1323564203189719	-0.002952039084310455	0.03262723087902373	0.4153882551890712	0	0	0.4153882551890712	0.0705665797729047	0.08498044648692016	-0.4306092125017789	0.5123471857245412	-0.04041588080460211	0.01664900599068426	0.2736615882549395	0	0	0.2736615882549395	0.0245161766814669	-0.02411142021336602	-0.3069610094320567	-0.08020286808800088	0.03071009669224245	-0.002277045198341125	0.09285955105241477	-0.3413169655827089	-0.03213472166122129	1.08206712514466	1.57079633	0	0	-0.3321122551534025	-0.2403926358575333	0.08997501400271991	0.6118021429560427	1.57079633	0	0
1.785	-0.1123973895160573	-0.01787616281033688	-0.05416822431829397	0.8090074472165275	0.9484684872950376	0.4887365476906355	-0.1263250644698222	-0.009158000405606465	0.02704572334836047	0.4392835242592198	0	0	0.4392835242592198	0.05373147944171236	0.08026333426889067	-0.436736126654945	0.509683652206504	-0.03478746399644154	0.01839448713947921	0.2843114254658928	0	0	0.2843114254658928	0.01750422559877984	-0.03283833349400987	-0.3054470016045384	-0.07975992934649211	0.02688351054376352	-0.0024964940696291	0.08850238732128952	-0.3393317541468004	-0.03380637000509901	1.076990595441386	1.57079633	0	0	-0.3293792869035679	-0.2420952720659377	0.09314030586087721	0.6093203222653575	1.57079633	0	0
1.79	-0.1118504448925604	-0.01418791936676566	-0.05420715724559677	0.8100027629128167	0.9484047466661124	0.4879621498121281	-0.1191698763041275	-0.01532452359937067	0.02197092029694904	0.4645811844577838	0	0	0.4645811844577838	0.03594979238746576	0.0745561830094334	-0.4415329339079601	0.5069925672612724	-0.02921818393097008	0.02008050852147698	0.2947483525136644	0	0	0.2947483525136644	0.01122498719254368	-0.04147387804341245	-0.3032616158050686	-0.07927196907361082	0.02312178925647383	-0.00270447933600952	0.08421600099253194	-0.337325241497712	-0.03532796926039288	1.071366579165534	1.57079633	0	0	-0.3264862190943187	-0.2439104040901109	0.09645647537082722	0.6071540129682327	1.57079633	0	0
1.795	-0.1113919260744523	-0.01053609146949623	-0.05435948159953004	0.8109682521930113	0.9483712985122843	0.4871891527130603	-0.110885856336827	-0.02142646453013199	0.01746434800553946	0.4912325506931482	0	0	0.4912325506931482	0.01735618129687365	0.06789076002013192	-0.4449031124349224	0.5042573500461168	-0.02372857722539662	0.02168724882779446	0.3049047737820532	0	0	0.3049047737820532	0.005759034261182627	-0.04995261112765227	-0.3004172753809892	-0.07874713181702118	0.01943586430159524	-0.002899703731922402	0.08003498006270364	-0.3352990574563794	-0.0366734884918149	1.065191920887856	1.57079633	0	0	-0.3234447928661844	-0.2458302771450835	0.09989025988022865	0.6053303419727397	1.57079633	0	0
1.8	-0.1110206072801532	-0.006929965606882463	-0.05464488011211085	0.8118981351287242	0.9483680329071876	0.4864209005205591	-0.1014784601925805	-0.02743873122989104	0.01358041518520439	0.5191713500466393	0	0	0.5191713500466393	-0.001896396603948802	0.06031410032057366	-0.4467687519423857	0.5014594079450008	-0.01833785297621399	0.02319609958995394	0.3147192139877651	0	0	0.3147192139877651	0.001172357179203797	-0.05821480509937362	-0.2969373621032699	-0.07819423946531628	0.01583544139501235	-0.003080906936531512	0.07599131120360182	-0.3332544259471171	-0.03781881049195582	1.058466258766431	1.57079633	0	0	-0.3202658731871719	-0.2478466141798024	0.1034057687159745	0.6038721140184568	1.57079633	0	0
1.805	-0.1107339887451384	-0.003378172408158292	-0.05508154984788033	0.8127870504091713	0.9483949014094278	0.4856607658391089	-0.09096372874793135	-0.03333626368694473	0.0103653335098227	0.5483137462261458	0	0	0.5483137462261458	-0.02163877008609337	0.05188806403493849	-0.4470729573500791	0.4985785644486928	-0.0130639186868669	0.02458991963915507	0.3241364233663497	0	0	0.3241364233663497	-0.002484558329762958	-0.06620679839408337	-0.2928557525992939	-0.07762255383862901	0.01232926564501085	-0.003246883812941815	0.07211378158069094	-0.3311923051726535	-0.03874221849852429	1.051192287412303	1.57079633	0	0	-0.3169592905006204	-0.2499506847634623	0.1069650498729645	0.6027975333968707	1.57079633	0	0
1.81	-0.1105284556458818	0.0001111216222740513	-0.05568576810054164	0.8136301245432879	0.9484519160881459	0.4849120914819399	-0.07936822485829209	-0.03909402480943398	0.007856182528414607	0.5785587106418804	0	0	0.5785587106418804	-0.04168803366527141	0.0426885771432029	-0.445781895968506	0.4955935331483381	-0.007923421712749026	0.02585327488616142	0.3331074367630956	0	0	0.3331074367630956	-0.005177292273894123	-0.07388121204699716	-0.2882161113292125	-0.07704153417437253	0.008925401798707561	-0.003396507988747555	0.06842742846414018	-0.3291135309534512	-0.03942485580000549	1.043375995242511	1.57079633	0	0	-0.3135336940991028	-0.2521333901186473	0.1105287471114307	0.6021199972223714	1.57079633	0	0
1.815	-0.110399447935881	0.003530023402123686	-0.05647147612629566	0.8144230318433469	0.9485391457139202	0.4841781320816794	-0.06672878244852698	-0.04468701124202034	0.006080143674086311	0.6097887411004874	0	0	0.6097887411004874	-0.06185037713912757	0.03280456696892109	-0.4428863873091813	0.4924824176995302	-0.002931798289506113	0.02697266086743724	0.3415895892263823	0	0	0.3415895892263823	-0.006887685381106158	-0.08119703896268192	-0.283070961301671	-0.07646060346221825	0.005631513781603811	-0.003528762155833964	0.06495305248527097	-0.3270189592991306	-0.03985113932775197	1.035026868202272	1.57079633	0	0	-0.3099964235604999	-0.2543853631270016	0.1140568193035818	0.6018479726484637	1.57079633	0	0
